<svg width="64" height="64" viewBox="0 0 64 64" fill="none" xmlns="http://www.w3.org/2000/svg">
<circle cx="32" cy="32" r="32" fill="#343633"/>
<path fill-rule="evenodd" clip-rule="evenodd" d="M41.2457 25.2784L47.7028 31.3278C48.0991 31.6991 48.0991 32.3009 47.7028 32.6722L41.2457 38.7216C40.8495 39.0928 40.2071 39.0928 39.8108 38.7216C39.4146 38.3504 39.4146 37.7485 39.8108 37.3773L44.5358 32.9506L17.0146 32.9506C16.4543 32.9506 16 32.525 16 32C16 31.475 16.4543 31.0494 17.0146 31.0494L44.5358 31.0494L39.8108 26.6227C39.4146 26.2515 39.4146 25.6496 39.8108 25.2784C40.2071 24.9072 40.8495 24.9072 41.2457 25.2784Z" fill="white"/>
</svg>
