<svg width="64" height="64" viewBox="0 0 64 64" fill="none" xmlns="http://www.w3.org/2000/svg">
<circle cx="32" cy="32" r="32" transform="matrix(-1 0 0 1 64 0)" fill="#343633"/>
<path fill-rule="evenodd" clip-rule="evenodd" d="M22.7543 25.2784L16.2972 31.3278C15.9009 31.6991 15.9009 32.3009 16.2972 32.6722L22.7543 38.7216C23.1505 39.0928 23.7929 39.0928 24.1892 38.7216C24.5854 38.3504 24.5854 37.7485 24.1892 37.3773L19.4642 32.9506L46.9854 32.9506C47.5457 32.9506 48 32.525 48 32C48 31.475 47.5457 31.0494 46.9854 31.0494L19.4642 31.0494L24.1892 26.6227C24.5854 26.2515 24.5854 25.6496 24.1892 25.2784C23.7929 24.9072 23.1505 24.9072 22.7543 25.2784Z" fill="white"/>
</svg>
