<svg width="52" height="52" viewBox="0 0 52 52" fill="none" xmlns="http://www.w3.org/2000/svg">
<circle cx="26" cy="26" r="26" fill="#343633"/>
<path fill-rule="evenodd" clip-rule="evenodd" d="M32.3431 19.2784L38.7071 25.3278C39.0976 25.6991 39.0976 26.3009 38.7071 26.6722L32.3431 32.7216C31.9526 33.0928 31.3195 33.0928 30.9289 32.7216C30.5384 32.3504 30.5384 31.7485 30.9289 31.3773L35.5858 26.9506L14 26.9506C13.4477 26.9506 13 26.525 13 26C13 25.475 13.4477 25.0494 14 25.0494L35.5858 25.0494L30.9289 20.6227C30.5384 20.2515 30.5384 19.6496 30.9289 19.2784C31.3195 18.9072 31.9526 18.9072 32.3431 19.2784Z" fill="white"/>
</svg>
