<svg width="16" height="12" viewBox="0 0 16 12" fill="none" xmlns="http://www.w3.org/2000/svg">
<g clip-path="url(#clip0_8_276)">
<path d="M16 3.34814C16 5.83549 16 8.31868 16 10.8019C15.9833 10.8559 15.9625 10.91 15.9458 10.9641C15.7417 11.5838 15.1833 11.9956 14.5292 11.9956C10.175 11.9998 5.825 11.9956 1.47083 11.9956C1.24167 11.9956 1.02917 11.9416 0.825 11.8417C0.379167 11.6338 0.129167 11.2677 0 10.806C0 8.31868 0 5.83549 0 3.34814C0.025 3.36478 0.0541667 3.37726 0.0791667 3.3939C2.24167 4.83307 4.4 6.27223 6.5625 7.70724C7.52083 8.34364 8.475 8.3478 9.4375 7.70724C10.6583 6.89615 11.8792 6.0809 13.1 5.26981C14.0667 4.63341 15.0333 3.99286 16 3.34814Z" fill="white"/>
<path d="M0 1.75945C0 1.57227 0 1.3851 0 1.19792C0.316667 0.311958 0.758333 0 1.70417 0C2.9625 0 4.225 0 5.48333 0C8.47083 0 11.4625 0 14.45 0C14.75 0 15.0292 0.0582322 15.2875 0.212132C15.6667 0.436742 15.8833 0.781976 16 1.19792C16 1.3851 16 1.57227 16 1.75945C15.8958 2.17955 15.6625 2.49567 15.3 2.73276C13.175 4.14281 11.0542 5.55702 8.92917 6.97123C8.28333 7.39965 7.71667 7.39965 7.07083 6.97123C4.96667 5.5695 2.8625 4.1636 0.75 2.77019C0.370833 2.51646 0.104167 2.20451 0 1.75945Z" fill="white"/>
</g>
<defs>
<clipPath id="clip0_8_276">
<rect width="16" height="12" fill="white"/>
</clipPath>
</defs>
</svg>
