<svg width="286" height="28" viewBox="0 0 286 28" fill="none" xmlns="http://www.w3.org/2000/svg">
<path d="M56.417 20.7547C55.6949 21.0666 54.9628 21.347 54.2305 21.5902C53.493 21.8388 52.735 22.0555 51.946 22.2352C51.1621 22.415 50.332 22.5525 49.4603 22.6478C48.5889 22.7377 47.6557 22.7853 46.6605 22.7853C44.546 22.7853 42.5968 22.5525 40.8177 22.0872C39.0437 21.622 37.512 20.924 36.228 19.9878C34.9443 19.0518 33.9435 17.8885 33.2322 16.4873C32.5152 15.0912 32.1594 13.4517 32.1594 11.5852C32.1594 9.71336 32.5152 8.07919 33.2322 6.68328C33.9437 5.28189 34.9443 4.11329 36.228 3.18255C37.512 2.24654 39.0437 1.54858 40.8177 1.08321C42.5968 0.618037 44.546 0.385254 46.6605 0.385254C47.6557 0.385254 48.5891 0.432904 49.4603 0.522736C50.332 0.617841 51.1621 0.755324 51.946 0.935183C52.7348 1.11504 53.493 1.33181 54.2305 1.57495C54.9628 1.82355 55.6949 2.10378 56.417 2.41566V7.58726C55.8445 7.26484 55.2412 6.9475 54.607 6.63543C53.9727 6.31809 53.2715 6.03238 52.508 5.78398C51.7397 5.5301 50.8991 5.32407 49.9812 5.16023C49.0684 5.00146 48.0318 4.92217 46.8871 4.92217C45.1234 4.92217 43.6591 5.10731 42.4987 5.47738C41.3334 5.85291 40.405 6.34992 39.7089 6.96859C39.0127 7.58707 38.528 8.29576 38.2444 9.09957C37.9609 9.8981 37.8215 10.7285 37.8215 11.585C37.8215 12.1509 37.8834 12.7114 38.002 13.2666C38.1256 13.8165 38.3269 14.3401 38.6051 14.8318C38.8887 15.3236 39.2549 15.7731 39.7087 16.1854C40.1624 16.598 40.7246 16.9575 41.4001 17.2536C42.0756 17.5551 42.8646 17.7877 43.7671 17.9623C44.6696 18.1314 45.7062 18.2162 46.8869 18.2162C48.0316 18.2162 49.0682 18.1422 49.981 17.9941C50.8991 17.8406 51.7396 17.645 52.5078 17.3964C53.2711 17.1478 53.9723 16.8675 54.6069 16.5504C55.241 16.2385 55.8445 15.9106 56.4168 15.5827V20.7543L56.417 20.7547ZM88.5077 11.5854C88.5077 13.415 88.183 15.0279 87.528 16.4238C86.8731 17.8252 85.9344 18.9938 84.7177 19.9351C83.4954 20.8766 82.0206 21.5851 80.2829 22.0663C78.5449 22.5475 76.5957 22.7855 74.43 22.7855C72.2641 22.7855 70.3096 22.5475 68.5615 22.0663C66.8133 21.5851 65.3229 20.8766 64.0956 19.9351C62.8682 18.9938 61.9195 17.8252 61.2542 16.4238C60.589 15.0279 60.259 13.415 60.259 11.5854C60.259 9.75593 60.589 8.14305 61.2542 6.74694C61.9195 5.34556 62.8682 4.17696 64.0956 3.23567C65.3229 2.29438 66.8133 1.58569 68.5615 1.10469C70.3098 0.623505 72.2641 0.385449 74.43 0.385449C76.5957 0.385449 78.5451 0.623505 80.2829 1.10469C82.0206 1.58569 83.4954 2.29438 84.7177 3.23567C85.9346 4.17696 86.8731 5.34556 87.528 6.74694C88.183 8.14305 88.5077 9.75593 88.5077 11.5854ZM82.8456 11.5854C82.8456 10.7923 82.7219 9.99906 82.4743 9.2058C82.2267 8.41801 81.7883 7.70951 81.1593 7.07483C80.5302 6.44561 79.6742 5.93806 78.586 5.54123C77.4978 5.14988 76.1108 4.9542 74.4298 4.9542C73.3005 4.9542 72.3104 5.04403 71.4543 5.22389C70.5983 5.40375 69.8558 5.65763 69.2319 5.97477C68.6078 6.29739 68.0816 6.67292 67.6586 7.10119C67.2358 7.52965 66.9007 7.98975 66.6479 8.48148C66.3952 8.96794 66.2149 9.48077 66.1117 10.0149C66.0035 10.5437 65.9519 11.0673 65.9519 11.5854C65.9519 12.1142 66.0035 12.6431 66.1117 13.1824C66.2147 13.7166 66.3952 14.2348 66.6479 14.7211C66.9009 15.213 67.236 15.6731 67.6586 16.0961C68.0816 16.5191 68.6076 16.8892 69.2319 17.2013C69.8558 17.5186 70.5983 17.7672 71.4543 17.9471C72.3104 18.1267 73.3005 18.2166 74.4298 18.2166C76.1108 18.2166 77.498 18.0209 78.586 17.6295C79.6742 17.2329 80.5302 16.7253 81.1593 16.0961C81.7883 15.4616 82.2269 14.7529 82.4743 13.965C82.7219 13.1719 82.8456 12.3784 82.8456 11.5854ZM113.482 22.2143V13.3305H99.2183V22.2143H93.618V0.924833H99.2183V8.66622H113.482V0.924833H119.082V22.2143H113.482ZM152.442 11.5854C152.442 13.415 152.117 15.0279 151.462 16.4238C150.807 17.8252 149.868 18.9938 148.652 19.9351C147.429 20.8766 145.955 21.5851 144.217 22.0663C142.479 22.5475 140.53 22.7855 138.364 22.7855C136.198 22.7855 134.244 22.5475 132.495 22.0663C130.747 21.5851 129.257 20.8766 128.03 19.9351C126.802 18.9938 125.853 17.8252 125.188 16.4238C124.523 15.0279 124.193 13.415 124.193 11.5854C124.193 9.75593 124.523 8.14305 125.188 6.74694C125.853 5.34556 126.802 4.17696 128.03 3.23567C129.257 2.29438 130.747 1.58569 132.495 1.10469C134.244 0.623505 136.198 0.385449 138.364 0.385449C140.53 0.385449 142.479 0.623505 144.217 1.10469C145.955 1.58569 147.429 2.29438 148.652 3.23567C149.869 4.17696 150.807 5.34556 151.462 6.74694C152.117 8.14305 152.442 9.75593 152.442 11.5854ZM146.78 11.5854C146.78 10.7923 146.656 9.99906 146.408 9.2058C146.161 8.41801 145.722 7.70951 145.093 7.07483C144.464 6.44561 143.608 5.93806 142.52 5.54123C141.432 5.14988 140.045 4.9542 138.364 4.9542C137.234 4.9542 136.244 5.04403 135.388 5.22389C134.532 5.40375 133.79 5.65763 133.166 5.97477C132.542 6.29739 132.016 6.67292 131.593 7.10119C131.17 7.52965 130.835 7.98975 130.582 8.48148C130.329 8.96794 130.149 9.48077 130.046 10.0149C129.938 10.5437 129.886 11.0673 129.886 11.5854C129.886 12.1142 129.938 12.6431 130.046 13.1824C130.149 13.7166 130.329 14.2348 130.582 14.7211C130.835 15.213 131.17 15.6731 131.593 16.0961C132.016 16.5191 132.542 16.8892 133.166 17.2013C133.79 17.5186 134.532 17.7672 135.388 17.9471C136.244 18.1267 137.234 18.2166 138.364 18.2166C140.045 18.2166 141.432 18.0209 142.52 17.6295C143.608 17.2329 144.464 16.7253 145.093 16.0961C145.722 15.4616 146.161 14.7529 146.408 13.965C146.656 13.1719 146.78 12.3784 146.78 11.5854ZM163.06 0.924833V12.918C163.06 13.7111 163.127 14.4303 163.256 15.0808C163.384 15.7259 163.627 16.2758 163.983 16.7359C164.333 17.1958 164.828 17.55 165.463 17.8041C166.097 18.058 166.922 18.1847 167.938 18.1847C168.706 18.1847 169.511 18.0738 170.351 17.857C171.192 17.6401 172.022 17.3546 172.847 16.9898C173.677 16.6302 174.461 16.2123 175.214 15.7472C175.962 15.2765 176.637 14.7848 177.23 14.2821V0.924833H182.831V22.2143H177.23V19.3006C176.524 19.7132 175.776 20.1308 174.982 20.5487C174.183 20.9664 173.337 21.3418 172.445 21.6802C171.547 22.0133 170.593 22.2885 169.588 22.4998C168.582 22.7113 167.52 22.817 166.401 22.817C165.004 22.817 163.745 22.6426 162.642 22.2989C161.533 21.9499 160.594 21.4634 159.831 20.8235C159.063 20.189 158.48 19.4221 158.073 18.5177C157.665 17.6135 157.459 16.6035 157.459 15.4876V0.924638H163.06V0.924833ZM208.45 6.91625C208.058 6.72058 207.542 6.49834 206.897 6.24993C206.253 6.00133 205.521 5.76874 204.706 5.5467C203.886 5.32446 203.004 5.13933 202.045 4.9913C201.086 4.838 200.106 4.76379 199.1 4.76379C198.291 4.76379 197.605 4.79035 197.038 4.84328C196.465 4.89093 195.991 4.95967 195.599 5.04423C195.212 5.12371 194.908 5.21881 194.681 5.32974C194.454 5.43539 194.278 5.5467 194.16 5.6629C194.036 5.77382 193.959 5.89041 193.923 6.00133C193.886 6.11753 193.871 6.2181 193.871 6.31321C193.871 6.62527 194.021 6.89497 194.325 7.12755C194.629 7.36034 195.041 7.56637 195.562 7.74622C196.088 7.92589 196.697 8.10048 197.393 8.25905C198.089 8.41762 198.827 8.58166 199.605 8.75606C200.389 8.92537 201.194 9.1105 202.024 9.31145C202.854 9.5124 203.658 9.75027 204.442 10.0147C205.221 10.2844 205.959 10.5964 206.655 10.956C207.351 11.3104 207.959 11.7281 208.485 12.2041C209.006 12.6747 209.419 13.2246 209.723 13.8435C210.027 14.462 210.177 15.1707 210.177 15.9692C210.177 16.9898 210.001 17.8676 209.646 18.6026C209.295 19.3377 208.826 19.9564 208.233 20.4587C207.645 20.9662 206.964 21.3736 206.185 21.6749C205.412 21.9815 204.597 22.2196 203.746 22.3834C202.895 22.5475 202.029 22.6584 201.157 22.706C200.286 22.7589 199.461 22.7855 198.672 22.7855C196.614 22.7855 194.717 22.6109 192.969 22.2672C191.215 21.9235 189.673 21.4898 188.332 20.977L188.343 15.8952C189.725 16.683 191.298 17.2964 193.061 17.7405C194.83 18.1845 196.717 18.4068 198.734 18.4068C199.92 18.4068 200.889 18.3433 201.637 18.2111C202.39 18.0842 202.973 17.9203 203.396 17.7194C203.819 17.5184 204.107 17.2962 204.257 17.0583C204.406 16.8203 204.484 16.5931 204.484 16.3762C204.484 16.0377 204.334 15.7364 204.03 15.4878C203.731 15.2339 203.318 15.0119 202.792 14.8217C202.271 14.626 201.663 14.4514 200.967 14.2928C200.271 14.1341 199.533 13.9702 198.755 13.8117C197.976 13.6531 197.171 13.4785 196.346 13.2934C195.521 13.1082 194.717 12.8862 193.938 12.6325C193.16 12.3839 192.422 12.0879 191.726 11.7494C191.03 11.4163 190.421 11.0196 189.9 10.5595C189.374 10.0996 188.962 9.56552 188.662 8.96267C188.358 8.35962 188.209 7.65659 188.209 6.86333C188.209 5.92185 188.369 5.11297 188.693 4.43083C189.013 3.74869 189.452 3.16693 189.998 2.68574C190.55 2.20455 191.184 1.81847 191.901 1.51714C192.623 1.21581 193.381 0.983029 194.175 0.819183C194.969 0.655141 195.779 0.538945 196.594 0.48075C197.409 0.417086 198.182 0.385644 198.92 0.385644C199.724 0.385644 200.554 0.428022 201.405 0.507113C202.256 0.591868 203.091 0.708064 203.922 0.856092C204.747 1.00412 205.541 1.17871 206.314 1.37438C207.083 1.57006 207.794 1.77629 208.449 1.99306V6.91625H208.45ZM238.617 21.1619C236.915 21.7384 235.218 22.1561 233.517 22.4047C231.82 22.6586 230.087 22.7855 228.313 22.7855C226.049 22.7855 224.033 22.5369 222.265 22.0344C220.496 21.5322 219.005 20.8076 217.799 19.856C216.592 18.9092 215.669 17.7459 215.035 16.3711C214.401 14.9963 214.081 13.4469 214.081 11.7072C214.081 10.0996 214.401 8.60315 215.04 7.22305C215.679 5.84823 216.587 4.64779 217.763 3.63249C218.933 2.61192 220.351 1.81866 222.012 1.24764C223.678 0.67135 225.529 0.38584 227.576 0.38584C229.458 0.38584 231.181 0.644986 232.748 1.16836C234.316 1.69192 235.657 2.46389 236.781 3.48447C237.905 4.51031 238.776 5.76894 239.395 7.26543C240.014 8.76719 240.324 10.491 240.324 12.4423V13.8701H219.867C220.052 14.5416 220.351 15.155 220.769 15.7102C221.187 16.2707 221.754 16.7466 222.466 17.138C223.183 17.5293 224.059 17.8307 225.106 18.0476C226.148 18.2644 227.391 18.3753 228.845 18.3753C229.871 18.3753 230.876 18.3119 231.867 18.1797C232.851 18.0529 233.775 17.8836 234.631 17.6721C235.487 17.4606 236.26 17.2227 236.946 16.9634C237.637 16.7095 238.194 16.4506 238.617 16.1914V21.1619ZM234.749 9.65008C234.697 9.12124 234.548 8.57659 234.29 8.01592C234.032 7.45017 233.625 6.94242 233.073 6.48779C232.521 6.03297 231.794 5.65763 230.897 5.36665C230 5.07059 228.886 4.92256 227.545 4.92256C226.287 4.92256 225.199 5.08114 224.281 5.40375C223.363 5.7209 222.595 6.1228 221.976 6.59872C221.357 7.06936 220.877 7.58218 220.532 8.13231C220.192 8.67696 219.97 9.18452 219.867 9.64989H234.749L234.749 9.65008Z" fill="white"/>
<path d="M27.1474 20.68C25.4534 21.2538 23.765 21.6695 22.0712 21.9168C20.3823 22.1695 18.6577 22.2958 16.8923 22.2958C14.6388 22.2958 12.6321 22.0484 10.8713 21.5483C9.23517 21.0839 7.83847 20.4277 6.68515 19.5768L10.9088 16.5815C10.9623 16.613 11.0164 16.644 11.0718 16.6743C11.7852 17.0641 12.6578 17.3638 13.6999 17.5794C14.7365 17.7954 15.9738 17.9058 17.421 17.9058C18.4423 17.9058 19.4435 17.8427 20.4286 17.7111C21.4094 17.5851 22.3283 17.4166 23.1801 17.206C24.032 16.9953 24.8019 16.7586 25.4847 16.5009C26.1725 16.2478 26.7269 15.9902 27.1476 15.732V20.6798L27.1474 20.68ZM27.9513 6.91791L20.5347 14.771L16.608 11.7501L0.000244141 23.5281L4.99402 17.9979C4.46612 17.3681 4.02619 16.6721 3.6754 15.9111C3.04389 14.5427 2.72566 13.0007 2.72566 11.2689C2.72566 9.66873 3.04389 8.17947 3.68054 6.80582C4.31662 5.43724 5.22008 4.24267 6.39035 3.23186C7.55566 2.21617 8.96703 1.42643 10.6199 0.858142C12.2779 0.284387 14.1204 0.000244141 16.1581 0.000244141C18.0317 0.000244141 19.7461 0.258414 21.3062 0.779441C22.8667 1.30066 24.2013 2.06912 25.3201 3.08481C26.4392 4.10597 27.3064 5.35854 27.9227 6.84819L27.9515 6.9183L27.9513 6.91791ZM8.60976 13.9934L15.9376 5.87801L20.1231 8.72373L22.1011 6.51308C21.9581 6.36154 21.8007 6.21527 21.6293 6.07407C21.0805 5.62179 20.3568 5.24801 19.4636 4.9584C18.5703 4.66371 17.4617 4.51607 16.1271 4.51607C14.8747 4.51607 13.7921 4.67425 12.8783 4.99531C11.9644 5.31089 11.2 5.71123 10.5839 6.1848C9.96819 6.6533 9.49075 7.16339 9.14662 7.71097C9.10224 7.78206 9.06016 7.85236 9.01978 7.92188C7.82571 9.78395 7.72858 12.0878 8.60976 13.9936V13.9934Z" fill="url(#paint0_linear_8_21)"/>
<defs>
<linearGradient id="paint0_linear_8_21" x1="0.000244141" y1="11.764" x2="27.9513" y2="11.764" gradientUnits="userSpaceOnUse">
<stop stop-color="#89C37F"/>
<stop offset="1" stop-color="#0D975F"/>
</linearGradient>
</defs>
</svg>
