<svg width="13" height="18" viewBox="0 0 13 18" fill="none" xmlns="http://www.w3.org/2000/svg">
<path d="M0.246568 2.35281C0.331519 2.19591 0.396245 2.02519 0.492368 1.87147C0.64797 1.62201 0.835511 1.40178 1.08748 1.25225C1.75301 0.866438 2.41428 0.467337 3.10806 0.137881C3.73697 -0.161769 4.50359 0.0447529 4.94555 0.585357C5.02596 0.68476 5.10052 0.790547 5.16446 0.905379C5.64023 1.76555 6.12185 2.61934 6.59762 3.47952C6.96151 4.13874 6.85793 4.84176 6.33026 5.35141C6.07998 5.594 5.77746 5.70899 5.43655 5.73253C4.98077 5.76357 4.60012 5.94081 4.30846 6.3004C4.12146 6.53286 4.02651 6.79559 4.02041 7.09975C4.00251 7.85538 4.20423 8.56094 4.50432 9.24624C4.92167 10.1984 5.47829 11.0575 6.25229 11.7612C6.53975 12.0243 6.84686 12.2608 7.24371 12.3377C7.81983 12.4497 8.3122 12.3043 8.69152 11.849C8.90562 11.592 9.11654 11.3463 9.44087 11.2254C10.1028 10.9795 10.887 11.2232 11.2429 11.8399C11.7847 12.7793 12.3169 13.724 12.829 14.683C13.2195 15.4183 12.9172 16.3383 12.1666 16.7683C11.575 17.1068 10.978 17.4357 10.3773 17.7635C9.98604 17.9779 9.56804 18.0318 9.1308 17.9836C9.09516 17.9815 9.05953 17.9794 9.02389 17.9773C8.74458 17.8977 8.46528 17.818 8.18969 17.7394C8.0242 17.656 7.85765 17.5763 7.69322 17.4892C6.58902 16.8845 5.68511 16.0431 4.8593 15.1113C3.73533 13.8409 2.80375 12.4322 2.01623 10.9277C1.32781 9.61239 0.76487 8.25241 0.389605 6.81311C0.142989 5.86935 -0.0121557 4.91545 0.000747444 3.93702C0.00466842 3.58393 0.0543386 3.23986 0.0976209 2.88995C0.144787 2.71019 0.195678 2.5315 0.246568 2.35281Z" fill="white"/>
</svg>
